<svg width="140" height="140" viewBox="0 0 140 140" fill="none" xmlns="http://www.w3.org/2000/svg">
<g clip-path="url(#clip0)">
<g clip-path="url(#clip1)">
<path d="M137.231 49.6156C126.214 14.423 88.629 -5.24409 53.4295 5.7687C18.2346 16.786 -1.43494 54.3801 9.58025 89.5727L13.9051 88.218C3.6353 55.411 21.9727 20.3632 54.7842 10.0912C70.6792 5.11845 87.5596 6.63172 102.311 14.3505C117.068 22.0738 127.934 35.0777 132.909 50.9706C137.882 66.8631 136.371 83.7415 128.65 98.4969C120.931 113.254 107.927 124.12 92.0319 129.095C65.4278 137.421 36.2659 126.907 21.0983 103.522L17.2966 105.987C29.8341 125.321 51.2931 136.454 73.5384 136.451C80.1538 136.451 86.8438 135.468 93.3845 133.416C110.433 128.08 124.382 116.424 132.664 100.597C140.947 84.77 142.567 66.6639 137.231 49.6156Z" fill="white"/>
<path d="M60.2758 34.4274L61.5763 30.0866L38.9209 23.29C38.128 23.0499 37.2602 23.2675 36.6689 23.8587L32.1379 28.3898C31.6101 28.9176 31.3766 29.6719 31.5126 30.4061C31.6486 31.14 32.1379 31.7587 32.8198 32.0623L53.2096 41.1243L55.0494 36.983L37.6751 29.2597L38.9167 28.0181L60.2758 34.4274Z" fill="white"/>
<path d="M81.3207 20.9318C81.3207 19.6812 80.3079 18.6663 79.0552 18.6663C79.0528 18.6663 79.0528 18.6663 79.0507 18.6663C74.0665 18.6663 69.3791 20.6077 65.854 24.1331L46.6424 43.3425L38.824 41.3872C38.0516 41.1947 37.2359 41.4189 36.6717 41.983L32.1406 46.5141C31.6468 47.0079 31.4067 47.7011 31.4928 48.3923C31.5788 49.0832 31.9776 49.6994 32.5757 50.0575L43.4185 56.564L49.925 67.4068C50.2831 68.0049 50.8969 68.4036 51.5902 68.4897C51.6808 68.5011 51.7737 68.5056 51.8667 68.5056C52.4625 68.5056 53.0402 68.27 53.4708 67.8442L58.0018 63.3132C58.5636 62.749 58.7902 61.9336 58.5976 61.1609L56.6448 53.3515L76.1623 34.0265C79.4925 30.5397 81.3253 25.959 81.3207 20.9318ZM52.5371 51.0361C51.9684 51.5978 51.7397 52.4181 51.9323 53.195L53.8876 61.0134L52.3154 62.5857L47.0116 53.7457C46.819 53.4261 46.554 53.1589 46.2347 52.9687L37.3947 47.665L38.9669 46.0928L46.7853 48.048C47.5578 48.2406 48.3735 48.0164 48.9377 47.4522L69.0555 27.3344C71.1399 25.2479 73.7632 23.8953 76.6088 23.4037C76.1602 26.2039 74.8847 28.8001 72.9273 30.8505L52.5371 51.0361Z" fill="white"/>
<path d="M76.6914 61.3602L69.8949 38.4105L65.5495 39.6975L71.936 61.2609L70.5608 62.4753L63.0075 44.9537L58.8457 46.7479L67.636 67.1378C67.9237 67.804 68.5129 68.2933 69.2218 68.4519C69.3873 68.488 69.5525 68.5063 69.718 68.5063C70.2641 68.5063 70.7986 68.3092 71.2156 67.94L76.0186 63.7036C76.68 63.1205 76.9406 62.2076 76.6914 61.3602Z" fill="white"/>
<path d="M49.6734 127.629C33.5383 135.275 20.8808 136.263 14.9542 130.339C4.68222 120.067 15.8377 90.2232 40.9012 60.9163L37.4576 57.9711C9.96788 90.1143 -0.6053 121.191 11.7486 133.542C15.1991 136.99 20.0722 138.71 26.1165 138.71C33.1622 138.71 41.7985 136.374 51.6128 131.723L49.6734 127.629Z" fill="white"/>
<path d="M126.363 81.0293C125.969 80.293 125.201 79.8332 124.365 79.8332H116.703L110.532 67.4928C110.147 66.7249 109.363 66.2399 108.504 66.2399H85.8485C84.5956 66.2399 83.583 67.2548 83.583 68.5054V86.6297C83.583 87.8827 84.5958 88.8952 85.8485 88.8952H92.645V113.816C92.645 115.069 93.6576 116.082 94.9106 116.082H106.238C106.838 116.082 107.414 115.844 107.842 115.415L116.904 106.353C117.33 105.93 117.568 105.354 117.568 104.752V96.376L126.249 83.3538C126.712 82.6605 126.757 81.7656 126.363 81.0293ZM113.416 94.4346C113.169 94.8062 113.035 95.2455 113.035 95.6921V103.816L105.3 111.551H97.1763H97.1739V86.6297C97.1739 85.3768 96.1614 84.3642 94.9084 84.3642H88.1119V70.7712H107.102L113.273 83.1115C113.658 83.8795 114.442 84.3645 115.3 84.3645H120.131L113.416 94.4346Z" fill="white"/>
<path d="M127.944 61.7089L119.534 46.992C119.131 46.2851 118.379 45.85 117.568 45.85H103.975C103.218 45.85 102.511 46.2283 102.09 46.8581L98.2317 52.6466H92.6472V41.319H103.975C104.578 41.319 105.151 41.081 105.577 40.6552L113.975 32.257H124.364V27.726H113.037C112.434 27.726 111.861 27.964 111.435 28.3897L103.037 36.788H90.3817C89.1288 36.788 88.1162 37.803 88.1162 39.0535V54.9121C88.1162 56.1627 89.129 57.1776 90.3817 57.1776H99.4438C100.201 57.1776 100.907 56.7994 101.329 56.1696L105.187 50.3811H116.254L124.664 65.098C125.067 65.8048 125.819 66.2399 126.63 66.2399H135.692V61.7089H127.944Z" fill="white"/>
<path d="M72.2551 84.3642H59.6L53.4673 78.2314C53.0436 77.8054 52.4658 77.5676 51.8655 77.5676H40.538C39.2874 77.5676 38.2725 78.5805 38.2725 79.8331V95.6917C38.2725 96.9447 39.2874 97.9572 40.538 97.9572H49.6V120.613C49.6 121.471 50.0848 122.255 50.853 122.64C51.1725 122.799 51.5213 122.878 51.8658 122.878C52.346 122.878 52.8242 122.726 53.225 122.425L62.287 115.628C62.8579 115.2 63.1934 114.527 63.1934 113.816V108.107L73.6715 99.7268C74.2083 99.2965 74.5209 98.6463 74.5209 97.9575V86.6299C74.5207 85.377 73.5057 84.3642 72.2551 84.3642ZM69.9896 96.87L59.5115 105.25C58.9747 105.681 58.6621 106.331 58.6621 107.02V112.683L54.131 116.082V95.692C54.131 94.439 53.1161 93.4265 51.8655 93.4265H42.8035V82.0989H50.9276L57.0604 88.2317C57.484 88.6574 58.0618 88.8954 58.6621 88.8954H69.9896V96.87V96.87Z" fill="white"/>
<path d="M26.6206 51.4803L19.8241 40.1527C19.4163 39.4709 18.6776 39.0538 17.8826 39.0538H15.6171V43.5849H16.6005L21.8271 52.2958L16.2812 57.8417C15.8551 58.2654 15.6174 58.8431 15.6174 59.4435V66.24H8.82031V70.771H17.8824C19.1329 70.771 20.1479 69.7561 20.1479 68.5055V60.3814L26.2806 54.2486C27.0148 53.5123 27.1553 52.3728 26.6206 51.4803Z" fill="white"/>
<path d="M76.7892 5.0708V7.83462L69.4421 9.67195C69.1905 9.73543 68.9504 9.84195 68.7352 9.98459L63.0328 13.7862L50.6154 7.57644L48.5879 11.6293L62.181 18.4259C62.5005 18.5844 62.8471 18.6639 63.1938 18.6639C63.6334 18.6639 64.0706 18.5348 64.4489 18.2832L70.9192 13.9698L79.603 11.7993C80.6111 11.5478 81.3203 10.6417 81.3203 9.60182V5.0708H76.7892Z" fill="white"/>
</g>
</g>
<defs>
<clipPath id="clip0">
<rect width="140" height="140" fill="white"/>
</clipPath>
<clipPath id="clip1">
<rect width="136" height="136" fill="white" transform="translate(5.41895 2.70972)"/>
</clipPath>
</defs>
</svg>
