<svg width="140" height="140" viewBox="0 0 140 140" fill="none" xmlns="http://www.w3.org/2000/svg">
<path d="M140 61.2607C140 61.2571 140 61.2536 140 61.25C140 61.2361 139.998 61.2227 139.998 61.2087C139.997 61.1521 139.995 61.0955 139.989 61.0389C139.987 61.0102 139.981 60.9823 139.978 60.9541C139.972 60.912 139.967 60.8702 139.958 60.8281C139.95 60.7854 139.939 60.7436 139.928 60.7018C139.921 60.675 139.915 60.6482 139.907 60.6214C139.89 60.5661 139.871 60.5123 139.85 60.4589C139.845 60.4466 139.842 60.4338 139.837 60.4215L139.832 60.4086C139.829 60.4032 139.827 60.3977 139.825 60.3922L120.15 12.2968C120.077 12.1193 119.982 11.9582 119.871 11.8117C121.466 10.6132 122.5 8.70625 122.5 6.5625C122.5 2.9441 119.556 0 115.938 0C112.428 0 109.554 2.76883 109.383 6.23656L77.554 15.2698C75.5877 11.9096 71.5255 10.1598 67.6115 11.27C65.363 11.9079 63.4977 13.3834 62.3591 15.4246C61.5847 16.8123 61.2106 18.3487 61.2503 19.8967L29.3612 28.9466C28.1662 27.3134 26.2366 26.25 24.0625 26.25C20.4438 26.25 17.5 29.1941 17.5 32.8125C17.5 34.8734 18.4559 36.7147 19.9467 37.9187L0.17418 86.6439C0.172266 86.6482 0.170625 86.6529 0.168711 86.6573L0.160508 86.6775C0.154492 86.6923 0.150664 86.7073 0.144922 86.7223C0.125781 86.7724 0.107187 86.823 0.091875 86.8747C0.0833984 86.9028 0.0773828 86.9313 0.07 86.9594C0.0598828 86.9996 0.0489453 87.0398 0.0410156 87.0808C0.0328125 87.1229 0.0276172 87.1648 0.021875 87.2069C0.0180469 87.235 0.013125 87.2627 0.0103906 87.2911C0.00519531 87.3455 0.00328125 87.3999 0.0021875 87.4543C0.00191406 87.4697 0 87.4847 0 87.5C0 87.5052 0.000273438 87.5101 0.000273438 87.5153C0.000273438 87.5254 0.000546875 87.5355 0.000546875 87.5457C0.0254297 100.793 10.8098 111.562 24.0625 111.562C37.3174 111.562 48.1029 100.79 48.1245 87.5399C48.1247 87.5301 48.1247 87.5205 48.1247 87.5107C48.1247 87.5071 48.1247 87.5036 48.1247 87.5C48.1247 87.4861 48.1228 87.4727 48.1225 87.4587C48.1214 87.4021 48.1195 87.3455 48.1141 87.2889C48.1113 87.2602 48.1061 87.2323 48.1023 87.2041C48.0966 87.162 48.0914 87.1202 48.0832 87.0781C48.0747 87.0354 48.0635 86.9936 48.0525 86.9518C48.0457 86.925 48.04 86.8982 48.0318 86.8714C48.0151 86.8161 47.9954 86.7623 47.9746 86.7089C47.9697 86.6966 47.9664 86.6838 47.9615 86.6715L47.9563 86.6586C47.9541 86.6532 47.9519 86.6477 47.9495 86.6422L28.274 38.5465C28.2013 38.369 28.1061 38.208 27.9959 38.0614C29.5094 36.9242 30.5173 35.1488 30.616 33.1382L62.4457 24.1052C62.7594 24.6414 63.1304 25.1319 63.5417 25.5812C63.475 25.792 63.4375 26.0165 63.4375 26.25V115.938C59.8188 115.938 56.875 118.882 56.875 122.5V126.875H45.9375C42.3191 126.875 39.375 129.819 39.375 133.438V137.812C39.375 139.021 40.3545 140 41.5625 140H98.4375C99.6455 140 100.625 139.021 100.625 137.812V133.438C100.625 129.819 97.6809 126.875 94.0625 126.875H83.125V122.5C83.125 118.882 80.1812 115.938 76.5625 115.938V26.25C76.5625 26.02 76.5267 25.7983 76.4608 25.5899C76.9103 25.0958 77.3079 24.5481 77.6415 23.9504C78.4159 22.5627 78.7899 21.0263 78.7503 19.478L110.639 10.4281C110.978 10.8913 111.376 11.3086 111.822 11.6687L92.0495 60.3939C92.0475 60.3982 92.0459 60.4029 92.044 60.4073L92.0358 60.4275C92.0298 60.4423 92.0259 60.4573 92.0202 60.4723C92.0011 60.5224 91.9825 60.573 91.9671 60.6246C91.9587 60.6528 91.9527 60.6812 91.9453 60.7094C91.9349 60.7496 91.9242 60.7898 91.9163 60.8308C91.9081 60.8729 91.9029 60.9148 91.8971 60.9569C91.8933 60.985 91.8884 61.0127 91.8857 61.0411C91.8805 61.0955 91.8786 61.1499 91.8775 61.2043C91.8772 61.2196 91.8753 61.2344 91.8753 61.25C91.8753 61.2552 91.8756 61.2601 91.8756 61.2653C91.8756 61.2754 91.8758 61.2855 91.8758 61.2957C91.9004 74.5429 102.685 85.3125 115.938 85.3125C129.192 85.3125 139.978 74.5396 139.999 61.2899C140 61.2801 140 61.2705 140 61.2607ZM115.938 4.375C117.144 4.375 118.125 5.35637 118.125 6.5625C118.125 7.76863 117.144 8.75 115.938 8.75C114.731 8.75 113.75 7.76863 113.75 6.5625C113.75 5.35637 114.731 4.375 115.938 4.375ZM66.1793 17.5561C66.7486 16.5356 67.6813 15.7976 68.8056 15.4788C69.2035 15.3658 69.6038 15.312 69.9984 15.312C71.9045 15.312 73.6622 16.5695 74.2082 18.4918C74.2082 18.4923 74.2085 18.4926 74.2085 18.4931C74.2085 18.4934 74.2087 18.4937 74.2087 18.4939C74.5273 19.6178 74.3895 20.7987 73.8202 21.8189C73.2509 22.8394 72.3182 23.5774 71.1938 23.8962C68.8734 24.555 66.4497 23.2028 65.791 20.883C65.791 20.8827 65.791 20.8824 65.7907 20.8821C65.7907 20.8819 65.7904 20.8819 65.7904 20.8816C65.4721 19.7572 65.61 18.5765 66.1793 17.5561ZM24.0625 30.625C25.2686 30.625 26.25 31.6064 26.25 32.8125C26.25 34.0186 25.2686 35 24.0625 35C22.8564 35 21.875 34.0186 21.875 32.8125C21.875 31.6064 22.8564 30.625 24.0625 30.625ZM42.6792 85.3125H41.5625C40.3545 85.3125 39.375 86.292 39.375 87.5C39.375 88.708 40.3545 89.6875 41.5625 89.6875H43.6294C42.5376 99.5173 34.1789 107.188 24.0625 107.188C13.9461 107.188 5.58742 99.5173 4.49559 89.6875H32.8125C34.0205 89.6875 35 88.708 35 87.5C35 86.292 34.0205 85.3125 32.8125 85.3125H5.43594L24.0641 39.407C24.068 39.6728 24.1186 39.9424 24.2252 40.2032L42.6792 85.3125ZM78.75 122.5V129.06C78.75 129.061 78.75 129.061 78.75 129.062C78.75 130.271 79.7295 131.25 80.9375 131.25H94.0625C95.2686 131.25 96.25 132.231 96.25 133.438V135.625H43.75V133.438C43.75 132.231 44.7314 131.25 45.9375 131.25H72.1875C73.3955 131.25 74.375 130.271 74.375 129.062C74.375 127.854 73.3955 126.875 72.1875 126.875H61.25V122.5C61.25 121.294 62.2314 120.312 63.4375 120.312H76.5625C77.7686 120.312 78.75 121.294 78.75 122.5ZM67.8125 115.938V28.1545C68.521 28.3388 69.2557 28.4386 70.003 28.4386C70.7254 28.4386 71.4582 28.3432 72.1875 28.1548V115.938H67.8125ZM115.938 80.9375C105.821 80.9375 97.4624 73.2673 96.3706 63.4375H124.688C125.896 63.4375 126.875 62.458 126.875 61.25C126.875 60.042 125.896 59.0625 124.688 59.0625H97.3109L115.939 13.157C115.943 13.4228 115.994 13.6924 116.1 13.9532L134.554 59.0625H133.438C132.229 59.0625 131.25 60.042 131.25 61.25C131.25 62.458 132.229 63.4375 133.438 63.4375H135.504C134.413 73.2673 126.054 80.9375 115.938 80.9375Z" fill="white"/>
</svg>
