<svg width="140" height="140" viewBox="0 0 140 140" fill="none" xmlns="http://www.w3.org/2000/svg">
<path d="M128.71 36.129H106.129C106.129 28.6571 100.053 22.5806 92.5806 22.5806C85.1087 22.5806 79.0323 28.6571 79.0323 36.129H49.6345C52.4819 32.349 54.1935 27.6681 54.1935 22.5806C54.1935 10.1297 44.0639 0 31.6129 0C19.1619 0 9.03226 10.1297 9.03226 22.5806C9.03226 27.6681 10.7439 32.349 13.5913 36.129H11.2903C5.06484 36.129 0 41.1939 0 47.4194V115.161C0 121.387 5.06484 126.452 11.2903 126.452H36.129V135.484H27.0968V140H36.129H103.871H112.903V135.484H103.871V126.452H128.71C134.935 126.452 140 121.387 140 115.161V47.4194C140 41.1939 134.935 36.129 128.71 36.129ZM92.5806 27.0968C97.5619 27.0968 101.613 31.1477 101.613 36.129C101.613 41.1103 97.5619 45.1613 92.5806 45.1613C87.5994 45.1613 83.5484 41.1103 83.5484 36.129C83.5484 31.1477 87.5994 27.0968 92.5806 27.0968ZM79.8226 40.6452C80.4413 42.3861 81.4032 43.9623 82.6316 45.2945L63.7948 66.0145C61.0106 64.26 57.7229 63.2258 54.1935 63.2258C52.2087 63.2258 50.3052 63.56 48.5168 64.1539L40.88 43.1494C42.4065 42.4584 43.8381 41.6003 45.1613 40.6023V40.6452H79.8226ZM67.7419 81.2903C67.7419 88.7623 61.6655 94.8387 54.1935 94.8387C46.7216 94.8387 40.6452 88.7623 40.6452 81.2903C40.6452 73.8184 46.7216 67.7419 54.1935 67.7419C61.6655 67.7419 67.7419 73.8184 67.7419 81.2903ZM13.5484 22.5806C13.5484 12.6203 21.6526 4.51613 31.6129 4.51613C41.5732 4.51613 49.6774 12.6203 49.6774 22.5806C49.6774 32.541 41.5732 40.6452 31.6129 40.6452C21.6526 40.6452 13.5484 32.541 13.5484 22.5806ZM99.3548 135.484H40.6452V126.452H99.3548V135.484ZM135.484 115.161C135.484 118.896 132.445 121.935 128.71 121.935H103.871H36.129H11.2903C7.55548 121.935 4.51613 118.896 4.51613 115.161V112.903H135.484V115.161ZM135.484 108.387H4.51613V47.4194C4.51613 43.6845 7.55548 40.6452 11.2903 40.6452H18.0645V40.6023C21.8445 43.4497 26.5255 45.1613 31.6129 45.1613C33.3268 45.1613 34.991 44.9513 36.5965 44.5877L44.4252 66.1161C39.4416 69.3361 36.129 74.9294 36.129 81.2903C36.129 91.2506 44.2332 99.3548 54.1935 99.3548C64.1539 99.3548 72.2581 91.2506 72.2581 81.2903C72.2581 76.4852 70.3613 72.1248 67.2903 68.8845L86.2061 48.0765C88.1074 49.0971 90.2774 49.6774 92.5806 49.6774C95.5929 49.6774 98.3681 48.6771 100.619 47.0106L114.105 58.8113C113.362 60.121 112.903 61.6135 112.903 63.2258C112.903 68.2071 116.954 72.2581 121.935 72.2581C126.917 72.2581 130.968 68.2071 130.968 63.2258C130.968 58.2445 126.917 54.1935 121.935 54.1935C120.208 54.1935 118.609 54.7061 117.236 55.5484L103.765 43.7613C104.42 42.8039 104.944 41.7561 105.339 40.6452H128.71C132.445 40.6452 135.484 43.6845 135.484 47.4194V108.387ZM117.419 63.2258C117.419 60.7352 119.445 58.7097 121.935 58.7097C124.426 58.7097 126.452 60.7352 126.452 63.2258C126.452 65.7165 124.426 67.7419 121.935 67.7419C119.445 67.7419 117.419 65.7165 117.419 63.2258Z" fill="white"/>
<path d="M130.967 99.3549H126.451V103.871H130.967V99.3549Z" fill="white"/>
<path d="M121.936 99.3549H103.871V103.871H121.936V99.3549Z" fill="white"/>
<path d="M130.968 90.3226H103.871V94.8387H130.968V90.3226Z" fill="white"/>
</svg>
