<svg width="140" height="140" viewBox="0 0 140 140" fill="none" xmlns="http://www.w3.org/2000/svg">
<g clip-path="url(#clip0)">
<path d="M46.3467 76.5013H53.674C54.8068 76.5013 55.7248 75.5693 55.7248 74.4198V66.9829C55.7248 65.8334 54.8068 64.9015 53.674 64.9015H46.3467C45.2138 64.9015 44.2959 65.8334 44.2959 66.9829V74.4198C44.2959 75.5693 45.2141 76.5013 46.3467 76.5013ZM48.3975 69.0644H51.6232V72.3384H48.3975V69.0644Z" fill="white"/>
<path d="M86.6855 76.5013H94.0129C95.1457 76.5013 96.0636 75.5693 96.0636 74.4198V66.9829C96.0636 65.8334 95.1457 64.9015 94.0129 64.9015H86.6855C85.5527 64.9015 84.6348 65.8334 84.6348 66.9829V74.4198C84.6348 75.5693 85.553 76.5013 86.6855 76.5013ZM88.7363 69.0644H91.9621V72.3384H88.7363V69.0644Z" fill="white"/>
<path d="M66.5156 76.5013H73.8429C74.9758 76.5013 75.8937 75.5693 75.8937 74.4198V66.9829C75.8937 65.8334 74.9758 64.9015 73.8429 64.9015H66.5156C65.3828 64.9015 64.4648 65.8334 64.4648 66.9829V74.4198C64.4648 75.5693 65.3828 76.5013 66.5156 76.5013ZM68.5664 69.0644H71.7921V72.3384H68.5664V69.0644Z" fill="white"/>
<path d="M46.3467 57.8797H53.674C54.8068 57.8797 55.7248 56.9478 55.7248 55.7982V48.3614C55.7248 47.2118 54.8068 46.2799 53.674 46.2799H46.3467C45.2138 46.2799 44.2959 47.2118 44.2959 48.3614V55.7982C44.2959 56.9478 45.2141 57.8797 46.3467 57.8797ZM48.3975 50.4428H51.6232V53.7168H48.3975V50.4428Z" fill="white"/>
<path d="M86.6855 57.8797H94.0129C95.1457 57.8797 96.0636 56.9478 96.0636 55.7982V48.3614C96.0636 47.2118 95.1457 46.2799 94.0129 46.2799H86.6855C85.5527 46.2799 84.6348 47.2118 84.6348 48.3614V55.7982C84.6348 56.9478 85.553 57.8797 86.6855 57.8797ZM88.7363 50.4428H91.9621V53.7168H88.7363V50.4428Z" fill="white"/>
<path d="M66.5156 57.8797H73.8429C74.9758 57.8797 75.8937 56.9478 75.8937 55.7982V48.3614C75.8937 47.2118 74.9758 46.2799 73.8429 46.2799H66.5156C65.3828 46.2799 64.4648 47.2118 64.4648 48.3614V55.7982C64.4648 56.9478 65.3828 57.8797 66.5156 57.8797ZM68.5664 50.4428H71.7921V53.7168H68.5664V50.4428Z" fill="white"/>
<path d="M137.949 129.432H135.49V77.8211C135.49 76.6715 134.572 75.7396 133.439 75.7396H128.953V53.7817C128.953 52.6322 128.035 51.7002 126.902 51.7002H117.11V43.8923C117.11 42.7428 116.192 41.8109 115.059 41.8109C113.926 41.8109 113.008 42.7428 113.008 43.8923V51.7002H105.267V36.945C105.267 35.7955 104.349 34.8635 103.216 34.8635H96.0211V25.5375C96.0211 24.388 95.1032 23.4561 93.9704 23.4561H88.4414V14.1304C88.4414 12.9808 87.5235 12.0489 86.3907 12.0489H72.1878V3.11282C72.1878 1.96331 71.2698 1.03137 70.137 1.03137C69.0041 1.03137 68.0862 1.96331 68.0862 3.11282V12.0489H53.8833C52.7505 12.0489 51.8325 12.9808 51.8325 14.1304V23.4561H46.3036C45.1708 23.4561 44.2529 24.388 44.2529 25.5375V34.8635H37.0576C35.9248 34.8635 35.0068 35.7955 35.0068 36.945V61.3349H31.727V43.4061V32.9109C31.727 31.7613 30.809 30.8294 29.6762 30.8294C28.5433 30.8294 27.6254 31.7613 27.6254 32.9109V41.7273C25.9541 42.1794 23.3324 43.1164 20.7107 44.9727C17.0349 47.5756 12.7055 52.4895 12.1122 61.3349H6.83484C5.70199 61.3349 4.78406 62.2668 4.78406 63.4163V114.254C4.78406 115.404 5.70199 116.336 6.83484 116.336C7.9677 116.336 8.88562 115.404 8.88562 114.254V65.4978H35.0066V121.995H6.83484C5.70199 121.995 4.78406 122.927 4.78406 124.076V129.432H2.05078C0.91793 129.432 0 130.364 0 131.513C0 132.663 0.91793 133.594 2.05078 133.594H35.0066V138.95C35.0066 140.099 35.9245 141.031 37.0573 141.031H103.216C104.349 141.031 105.267 140.099 105.267 138.95V133.594H137.949C139.082 133.594 140 132.663 140 131.513C140 130.364 139.082 129.432 137.949 129.432V129.432ZM16.223 61.3349C17.0412 50.9778 23.9244 47.294 27.6254 46.0542V61.3349H16.223ZM124.851 55.8631V75.7396H105.267V55.8631H124.851ZM55.9341 16.2118H84.3402V23.4561H55.9341V16.2118ZM39.1081 39.0264H53.6531C54.7859 39.0264 55.7039 38.0945 55.7039 36.945C55.7039 35.7955 54.7859 34.8635 53.6531 34.8635H48.3541V27.619H91.9193V34.8635H63.4312C62.2984 34.8635 61.3804 35.7955 61.3804 36.945C61.3804 38.0945 62.2984 39.0264 63.4312 39.0264H101.166V77.8211C101.166 78.9706 102.084 79.9025 103.217 79.9025H131.388V121.995H105.267V87.6935C105.267 86.544 104.349 85.6121 103.217 85.6121C102.084 85.6121 101.166 86.544 101.166 87.6935V129.432H96.0641V124.076C96.0641 122.927 95.1461 121.995 94.0133 121.995H88.4417V85.8341C88.4417 84.6846 87.5238 83.7526 86.3909 83.7526H53.9689C52.8361 83.7526 51.9181 84.6846 51.9181 85.8341V121.994H46.3463C45.2134 121.994 44.2955 122.926 44.2955 124.076V129.431H39.1081V39.0264ZM84.3399 121.995H72.2304V87.9155H84.3399V121.995ZM68.1289 121.995H56.0197V87.9155H68.1289V121.995ZM91.9622 126.158V129.432H48.3971V126.158H91.9622ZM8.88562 126.158H35.0066V129.432H8.88562V126.158ZM101.166 136.868H39.1081V133.594H101.166V136.868H101.166ZM105.267 126.158H131.388V129.432H105.267V126.158Z" fill="white"/>
<path d="M17.9277 76.5014H25.8402C26.973 76.5014 27.891 75.5695 27.891 74.42C27.891 73.2704 26.973 72.3385 25.8402 72.3385H17.9277C16.7949 72.3385 15.877 73.2704 15.877 74.42C15.877 75.5695 16.7952 76.5014 17.9277 76.5014Z" fill="white"/>
<path d="M17.9277 86.3104H25.8402C26.973 86.3104 27.891 85.3784 27.891 84.2289C27.891 83.0794 26.973 82.1475 25.8402 82.1475H17.9277C16.7949 82.1475 15.877 83.0794 15.877 84.2289C15.877 85.3784 16.7952 86.3104 17.9277 86.3104Z" fill="white"/>
<path d="M17.9277 96.1192H25.8402C26.973 96.1192 27.891 95.1873 27.891 94.0377C27.891 92.8882 26.973 91.9563 25.8402 91.9563H17.9277C16.7949 91.9563 15.877 92.8882 15.877 94.0377C15.877 95.1873 16.7952 96.1192 17.9277 96.1192Z" fill="white"/>
<path d="M17.9277 105.928H25.8402C26.973 105.928 27.891 104.996 27.891 103.847C27.891 102.697 26.973 101.766 25.8402 101.766H17.9277C16.7949 101.766 15.877 102.697 15.877 103.847C15.877 104.996 16.7952 105.928 17.9277 105.928Z" fill="white"/>
<path d="M17.9277 115.737H25.8402C26.973 115.737 27.891 114.805 27.891 113.656C27.891 112.506 26.973 111.574 25.8402 111.574H17.9277C16.7949 111.574 15.877 112.506 15.877 113.656C15.877 114.805 16.7952 115.737 17.9277 115.737Z" fill="white"/>
<path d="M114.007 93.3384H121.919C123.052 93.3384 123.97 92.4065 123.97 91.257C123.97 90.1075 123.052 89.1755 121.919 89.1755H114.007C112.874 89.1755 111.956 90.1075 111.956 91.257C111.956 92.4065 112.874 93.3384 114.007 93.3384Z" fill="white"/>
<path d="M114.007 103.148H121.919C123.052 103.148 123.97 102.216 123.97 101.066C123.97 99.9168 123.052 98.9849 121.919 98.9849H114.007C112.874 98.9849 111.956 99.9168 111.956 101.066C111.956 102.216 112.874 103.148 114.007 103.148Z" fill="white"/>
<path d="M114.007 112.957H121.919C123.052 112.957 123.97 112.025 123.97 110.875C123.97 109.726 123.052 108.794 121.919 108.794H114.007C112.874 108.794 111.956 109.726 111.956 110.875C111.956 112.025 112.874 112.957 114.007 112.957Z" fill="white"/>
<path d="M115.059 66.7765C116.188 66.7765 117.104 65.8473 117.104 64.7014C117.104 63.5555 116.188 62.6263 115.059 62.6263C113.93 62.6263 113.015 63.5555 113.015 64.7014C113.015 65.8473 113.93 66.7765 115.059 66.7765Z" fill="white"/>
</g>
<defs>
<clipPath id="clip0">
<rect width="140" height="140" fill="white"/>
</clipPath>
</defs>
</svg>
