<svg width="140" height="140" viewBox="0 0 140 140" fill="none" xmlns="http://www.w3.org/2000/svg">
<path d="M140 73.0935C140 65.0277 133.955 58.2739 125.939 57.3842L119.228 56.639L118.542 53.891C120.759 52.2923 122.471 50.0432 123.403 47.4194H126.452C130.186 47.4194 133.226 44.38 133.226 40.6452C133.226 38.5406 132.241 36.68 130.731 35.4358C132.32 32.7465 133.226 29.6642 133.226 26.5323C133.226 16.8835 125.375 9.03226 115.726 9.03226H112.903V4.51613C112.903 2.02548 110.878 0 108.387 0H4.51613C2.02548 0 0 2.02548 0 4.51613V9.03226C0 11.5229 2.02548 13.5484 4.51613 13.5484V67.7419H70.6097C71.5603 69.1058 72.7097 70.3387 74.0623 71.3548C76.781 73.3939 80.1477 74.5161 83.5461 74.5161H92.5784V89.2906C90.1645 87.1252 87.001 85.8065 83.5484 85.8065C78.3526 85.8065 73.7958 88.7645 71.5287 93.1881C69.2323 91.3997 66.3555 90.3226 63.2258 90.3226C60.0961 90.3226 57.2194 91.3997 54.9229 93.1881C52.6558 88.7645 48.099 85.8065 42.9032 85.8065C37.7074 85.8065 33.1506 88.7645 30.8835 93.1881C28.5871 91.3997 25.7103 90.3226 22.5806 90.3226C15.1087 90.3226 9.03226 96.399 9.03226 103.871V118.282L6.24129 119.677C2.39129 121.604 0 125.472 0 129.775V140H40.6452H45.1613H81.2903H85.8065H126.452V129.775C126.452 125.474 124.06 121.604 120.21 119.677L117.419 118.282V103.871C117.419 102.286 117.13 100.771 116.629 99.3548H140V73.0935ZM114.967 58.2152L110.645 63.9777L106.321 58.2152L106.897 55.9119C108.089 56.2574 109.345 56.4516 110.645 56.4516C111.946 56.4516 113.201 56.2574 114.391 55.9119L114.967 58.2152ZM119.677 42.9032C119.677 47.8845 115.626 51.9355 110.645 51.9355C105.664 51.9355 101.613 47.8845 101.613 42.9032V36.129C101.613 34.8826 102.627 33.871 103.871 33.871H117.419C118.664 33.871 119.677 34.8826 119.677 36.129V42.9032ZM126.452 42.9032H124.194V38.3871H126.452C127.696 38.3871 128.71 39.3987 128.71 40.6452C128.71 41.8916 127.696 42.9032 126.452 42.9032ZM115.726 13.5484C122.884 13.5484 128.71 19.3719 128.71 26.5323C128.71 29.1448 127.874 31.7168 126.397 33.871H123.778C122.843 31.2494 120.359 29.3548 117.419 29.3548H103.871C100.931 29.3548 98.4471 31.2494 97.5123 33.871H94.8929C93.4161 31.719 92.5806 29.1471 92.5806 26.5323C92.5806 19.3719 98.4065 13.5484 105.565 13.5484H108.387H115.726ZM94.8387 38.3871H97.0968V42.9032H94.8387C93.5945 42.9032 92.5806 41.8916 92.5806 40.6452C92.5806 39.3987 93.5945 38.3871 94.8387 38.3871ZM4.51613 4.51613H108.387L108.389 9.03226H105.565H4.51613V4.51613ZM9.03226 63.2258V13.5484H93.8723C90.3158 16.7526 88.0645 21.3794 88.0645 26.5323C88.0645 29.6642 88.97 32.7487 90.5597 35.4358C89.049 36.68 88.0645 38.5406 88.0645 40.6452C88.0645 44.38 91.1039 47.4194 94.8387 47.4194H97.8871C98.8174 50.041 100.529 52.29 102.749 53.891L102.055 56.6616L85.7839 58.6939C84.6142 58.8497 83.5484 57.8968 83.5484 56.7158V37.2581C83.5484 32.9 80.0032 29.3548 75.6452 29.3548C71.2871 29.3548 67.7419 32.9 67.7419 37.2581V58.7097C67.7419 60.2542 67.9971 61.7694 68.4352 63.2258H9.03226ZM79.0323 42.9032H72.2581V37.2581C72.2581 35.3906 73.7777 33.871 75.6452 33.871C77.5126 33.871 79.0323 35.3906 79.0323 37.2581V42.9032ZM94.8387 103.871C94.8387 98.8897 98.8897 94.8387 103.871 94.8387C108.852 94.8387 112.903 98.8897 112.903 103.871V126.452H94.8387V103.871ZM83.5484 90.3226C87.6558 90.3226 91.1671 93.0864 92.2284 96.9771C91.0271 99.0003 90.3226 101.353 90.3226 103.871V118.282L87.5316 119.677C85.7274 120.581 84.2597 121.922 83.1916 123.523C81.8752 121.933 80.1455 120.678 78.0861 119.991L73.1839 118.359L73.5068 117.715C75.6452 113.438 76.7742 108.651 76.7742 103.871C76.7742 101.351 76.0697 99.0003 74.8684 96.9771C75.9274 93.0864 79.441 90.3226 83.5484 90.3226V90.3226ZM63.2258 94.8387C68.2071 94.8387 72.2581 98.8897 72.2581 103.871C72.2581 107.956 71.2939 112.043 69.4671 115.694L68.6045 117.419H57.8471L56.9845 115.694C55.1577 112.043 54.1935 107.956 54.1935 103.871C54.1935 98.8897 58.2445 94.8387 63.2258 94.8387V94.8387ZM42.9032 90.3226C47.0106 90.3226 50.5219 93.0864 51.5832 96.9771C50.3819 99.0003 49.6774 101.353 49.6774 103.871C49.6774 108.651 50.8065 113.438 52.9448 117.715L53.2677 118.359L48.3632 119.991C46.3061 120.678 44.5742 121.933 43.26 123.521C42.1942 121.922 40.7265 120.581 38.92 119.677L36.129 118.282V103.871C36.129 101.353 35.4245 99.0003 34.2232 96.9771C35.2845 93.0864 38.7958 90.3226 42.9032 90.3226ZM13.5484 103.871C13.5484 98.8897 17.5994 94.8387 22.5806 94.8387C27.5619 94.8387 31.6129 98.8897 31.6129 103.871V126.452H13.5484V103.871ZM40.6452 135.484H4.51613V129.775C4.51613 127.192 5.95 124.873 8.26 123.717L9.03226 123.331V130.968H36.129V123.331L36.9013 123.717C39.2113 124.873 40.6452 127.192 40.6452 129.775V130.704V135.484ZM81.2903 135.484H45.1613V130.704C45.1613 127.784 47.0219 125.201 49.7926 124.275L56.8152 121.935H69.6387L76.659 124.275C79.4297 125.201 81.2903 127.784 81.2903 130.704V135.484ZM118.192 123.717C120.502 124.873 121.935 127.192 121.935 129.775V135.484H85.8065V130.704V129.775C85.8065 127.192 87.2403 124.873 89.5503 123.717L90.3226 123.331V130.968H117.419V123.331L118.192 123.717ZM135.484 94.8387H128.71V77.709C128.71 76.2526 129.276 74.8842 130.308 73.8545L127.113 70.6616C125.23 72.5448 124.194 75.0468 124.194 77.709V94.8387H113.942C111.46 92.0748 107.872 90.3226 103.871 90.3226C101.403 90.3226 99.0929 90.9977 97.0968 92.1561V70H83.5484C81.121 70 78.7139 69.1984 76.7742 67.7419C73.9471 65.6216 72.2581 62.2435 72.2581 58.7097V47.4194H79.0323V56.7158C79.0323 60.3061 81.9519 63.2258 85.5423 63.2258C85.8132 63.2258 86.0842 63.2077 86.3484 63.1761L102.85 61.1145L110.645 71.5061L118.451 61.0964L125.44 61.8732C131.166 62.51 135.484 67.331 135.484 73.0935V94.8387Z" fill="white"/>
<path d="M49.6779 54.1936H45.1617V18.0646H31.6133V54.1936H27.0972V31.613H13.5488V58.7097H63.2262V27.0968H49.6779V54.1936ZM22.5811 54.1936H18.065V36.1291H22.5811V54.1936ZM36.1295 22.5807H40.6456V54.1936H36.1295V22.5807ZM54.194 31.613H58.7101V54.1936H54.194V31.613Z" fill="white"/>
</svg>
