<svg width="140" height="140" viewBox="0 0 140 140" fill="none" xmlns="http://www.w3.org/2000/svg">
<path d="M91.3063 99.3234L80.4453 96.6066L79.4041 93.4828C82.4403 91.5381 84.8378 88.69 86.2116 85.3125H87.5C92.3256 85.3125 96.25 81.3881 96.25 76.5625C96.25 74.6922 95.6484 72.9641 94.6444 71.54L94.6663 71.4941C95.7031 69.4203 96.25 67.1037 96.25 64.7894C96.25 59.0756 93.0737 53.935 87.9616 51.3778L87.4759 51.135C87.3425 45.8369 83.0134 41.5625 77.6847 41.5625H63.4375C55.3066 41.5625 48.6369 47.9303 48.1534 55.9409L47.7269 56.3675C45.1631 58.9312 43.75 62.3394 43.75 65.9641C43.75 67.4275 43.9841 68.8713 44.4456 70.2559L45.0428 72.0453C44.24 73.3688 43.75 74.9044 43.75 76.5625C43.75 81.3881 47.6744 85.3125 52.5 85.3125H53.7884C55.1622 88.69 57.5597 91.5381 60.5959 93.4828L59.5547 96.6066L48.6938 99.3234C44.6775 100.325 41.0987 102.701 38.6181 106.013C36.2841 109.121 35 112.973 35 116.858V137.812H105V116.858C105 112.973 103.716 109.121 101.384 106.015C98.9013 102.701 95.3225 100.325 91.3063 99.3234V99.3234ZM63.3019 105.459L61.9631 112.155L57.3059 101.679L60.2853 100.936L63.3019 105.459ZM67.4187 107.188H72.5834L74.9613 119.077L70 130.237L65.0388 119.077L67.4187 107.188ZM78.0369 112.155L76.6981 105.459L79.7147 100.933L82.6941 101.677L78.0369 112.155ZM87.5 80.9375H87.3491C87.4387 80.22 87.5 79.4916 87.5 78.75V72.1875C89.9128 72.1875 91.875 74.1497 91.875 76.5625C91.875 78.9753 89.9128 80.9375 87.5 80.9375ZM50.8178 59.4628L52.5 57.7806V56.875C52.5 50.8441 57.4066 45.9375 63.4375 45.9375H77.6847C80.6838 45.9375 83.125 48.3787 83.125 51.3778C83.125 53.7228 81.6287 55.7966 79.4084 56.5359L78.0609 56.9844L79.4413 61.1362L80.7909 60.6856C83.3809 59.8216 85.4087 57.9512 86.5309 55.5997C89.8341 57.4919 91.875 60.9459 91.875 64.7872C91.875 66.0975 91.6169 67.4056 91.1422 68.6284C90.0288 68.1187 88.8038 67.8125 87.5 67.8125H87.0975C86.1919 65.2728 83.7856 63.4375 80.9375 63.4375H59.0625C56.2144 63.4375 53.8081 65.2728 52.9025 67.8125H52.5C51.0803 67.8125 49.7591 68.1844 48.5734 68.7859C48.2803 67.8737 48.125 66.9266 48.125 65.9641C48.125 63.5075 49.0831 61.1997 50.8178 59.4628ZM52.5 80.9375C50.0872 80.9375 48.125 78.9753 48.125 76.5625C48.125 74.1497 50.0872 72.1875 52.5 72.1875V78.75C52.5 79.4916 52.5613 80.22 52.6509 80.9375H52.5ZM56.875 78.75V70C56.875 68.7925 57.855 67.8125 59.0625 67.8125H80.9375C82.145 67.8125 83.125 68.7925 83.125 70V78.75C83.125 85.9884 77.2384 91.875 70 91.875C62.7616 91.875 56.875 85.9884 56.875 78.75ZM70 96.25C71.8944 96.25 73.7144 95.9372 75.425 95.3794L76.3372 98.1159L73.2047 102.812H66.7953L63.6628 98.1138L64.575 95.3772C66.2856 95.9372 68.1056 96.25 70 96.25V96.25ZM39.375 116.858C39.375 113.912 40.3484 110.994 42.1159 108.638C43.9972 106.129 46.7119 104.326 49.7525 103.567L52.9966 102.756L66.6334 133.438H52.5V121.75C52.5 118.827 51.3603 116.08 49.2953 114.015L47.4841 112.203L44.3909 115.297L46.2022 117.108C47.4425 118.348 48.125 119.995 48.125 121.75V133.438H39.375V116.858ZM100.625 133.438H91.875V121.75C91.875 119.995 92.5597 118.346 93.7978 117.108L95.6091 115.297L92.5159 112.203L90.7047 114.015C88.6397 116.08 87.5 118.827 87.5 121.75V133.438H73.3666L87.0034 102.756L90.2475 103.567C93.2903 104.328 96.0028 106.129 97.8841 108.64C99.6516 110.994 100.625 113.912 100.625 116.858V133.438Z" fill="white"/>
<path d="M111.562 54.6875C126.037 54.6875 137.812 42.9122 137.812 28.4375C137.812 13.9628 126.037 2.1875 111.562 2.1875C97.0878 2.1875 85.3125 13.9628 85.3125 28.4375C85.3125 42.9122 97.0878 54.6875 111.562 54.6875ZM96.7203 44.4609C97.7375 40.2981 100.393 36.8747 103.935 34.8425L111.562 42.4681L119.19 34.8403C122.732 36.8747 125.39 40.2959 126.405 44.4587C122.5 48.0791 117.294 50.3125 111.562 50.3125C105.831 50.3125 100.625 48.0791 96.7203 44.4609V44.4609ZM105 21.875C105 18.2569 107.944 15.3125 111.562 15.3125C115.181 15.3125 118.125 18.2569 118.125 21.875C118.125 25.4931 115.181 28.4375 111.562 28.4375C107.944 28.4375 105 25.4931 105 21.875ZM111.562 32.8125C112.637 32.8125 113.684 32.935 114.699 33.145L111.562 36.2819L108.426 33.145C109.441 32.935 110.488 32.8125 111.562 32.8125ZM111.562 6.5625C123.624 6.5625 133.438 16.3756 133.438 28.4375C133.438 32.9372 132.068 37.1219 129.73 40.6044C127.711 35.6847 123.806 31.8434 118.956 29.8834C121.12 27.8841 122.5 25.0469 122.5 21.875C122.5 15.8441 117.593 10.9375 111.562 10.9375C105.532 10.9375 100.625 15.8441 100.625 21.875C100.625 25.0469 102.005 27.8841 104.169 29.8834C99.3169 31.8434 95.4144 35.6825 93.3953 40.6044C91.0569 37.1219 89.6875 32.9372 89.6875 28.4375C89.6875 16.3756 99.5006 6.5625 111.562 6.5625Z" fill="white"/>
<path d="M28.4375 54.6875C42.9122 54.6875 54.6875 42.9122 54.6875 28.4375C54.6875 13.9628 42.9122 2.1875 28.4375 2.1875C13.9628 2.1875 2.1875 13.9628 2.1875 28.4375C2.1875 42.9122 13.9628 54.6875 28.4375 54.6875ZM13.5953 44.4609C14.5403 40.5891 16.9116 37.3625 20.09 35.2953C21.1663 38.9047 24.4803 41.5625 28.4375 41.5625C32.3947 41.5625 35.7087 38.9047 36.785 35.2931C39.9634 37.3625 42.3325 40.5869 43.2797 44.4587C39.375 48.0791 34.1687 50.3125 28.4375 50.3125C22.7063 50.3125 17.5 48.0791 13.5953 44.4609ZM21.875 21.875C21.875 18.2569 24.8194 15.3125 28.4375 15.3125C32.0556 15.3125 35 18.2569 35 21.875C35 25.4931 32.0556 28.4375 28.4375 28.4375C24.8194 28.4375 21.875 25.4931 21.875 21.875ZM32.7491 33.4338C32.445 35.5513 30.6359 37.1875 28.4375 37.1875C26.2391 37.1875 24.43 35.5513 24.1259 33.4338C25.4975 33.0334 26.9434 32.8125 28.4375 32.8125C29.9316 32.8125 31.3775 33.0334 32.7491 33.4338V33.4338ZM28.4375 6.5625C40.4994 6.5625 50.3125 16.3756 50.3125 28.4375C50.3125 32.9372 48.9431 37.1219 46.6047 40.6044C44.5856 35.6847 40.6809 31.8434 35.8312 29.8834C37.9947 27.8841 39.375 25.0469 39.375 21.875C39.375 15.8441 34.4684 10.9375 28.4375 10.9375C22.4066 10.9375 17.5 15.8441 17.5 21.875C17.5 25.0469 18.8803 27.8841 21.0437 29.8834C16.1919 31.8434 12.2894 35.6825 10.2703 40.6044C7.93188 37.1219 6.5625 32.9372 6.5625 28.4375C6.5625 16.3756 16.3756 6.5625 28.4375 6.5625V6.5625Z" fill="white"/>
<path d="M109.375 59.0625H113.75V63.4375H109.375V59.0625Z" fill="white"/>
<path d="M109.375 83.125H98.4375V87.5H113.75V67.8125H109.375V83.125Z" fill="white"/>
<path d="M126.875 120.312V91.875H98.4375V96.25H122.5V120.312H126.875Z" fill="white"/>
<path d="M124.688 124.688C121.069 124.688 118.125 127.632 118.125 131.25C118.125 134.868 121.069 137.812 124.688 137.812C128.306 137.812 131.25 134.868 131.25 131.25C131.25 127.632 128.306 124.688 124.688 124.688ZM124.688 133.438C123.48 133.438 122.5 132.457 122.5 131.25C122.5 130.043 123.48 129.062 124.688 129.062C125.895 129.062 126.875 130.043 126.875 131.25C126.875 132.457 125.895 133.438 124.688 133.438Z" fill="white"/>
<path d="M26.25 59.0625H30.625V63.4375H26.25V59.0625Z" fill="white"/>
<path d="M41.5625 83.125H30.625V67.8125H26.25V87.5H41.5625V83.125Z" fill="white"/>
<path d="M13.125 120.312H17.5V96.25H41.5625V91.875H13.125V120.312Z" fill="white"/>
<path d="M15.3125 124.688C11.6944 124.688 8.75 127.632 8.75 131.25C8.75 134.868 11.6944 137.812 15.3125 137.812C18.9306 137.812 21.875 134.868 21.875 131.25C21.875 127.632 18.9306 124.688 15.3125 124.688ZM15.3125 133.438C14.105 133.438 13.125 132.457 13.125 131.25C13.125 130.043 14.105 129.062 15.3125 129.062C16.52 129.062 17.5 130.043 17.5 131.25C17.5 132.457 16.52 133.438 15.3125 133.438Z" fill="white"/>
</svg>
